<svg width="18" height="12" viewBox="0 0 18 12" fill="none" xmlns="http://www.w3.org/2000/svg">
<path d="M0.515491 8.57143H11.0559C11.1236 8.57146 11.1907 8.5626 11.2533 8.54534C11.3158 8.52808 11.3727 8.50277 11.4206 8.47085C11.4684 8.43893 11.5064 8.40103 11.5323 8.35932C11.5582 8.31761 11.5715 8.27291 11.5714 8.22777V7.2008C11.5715 7.15566 11.5582 7.11096 11.5323 7.06925C11.5064 7.02754 11.4684 6.98964 11.4206 6.95772C11.3727 6.9258 11.3158 6.90049 11.2533 6.88323C11.1907 6.86597 11.1236 6.85711 11.0559 6.85714H0.515491C0.447781 6.85711 0.380725 6.86597 0.318159 6.88323C0.255593 6.90049 0.198744 6.9258 0.150866 6.95772C0.102988 6.98964 0.0650191 7.02754 0.039132 7.06925C0.0132448 7.11096 -5.26798e-05 7.15566 1.56839e-07 7.2008V8.22777C-5.26798e-05 8.27291 0.0132448 8.31761 0.039132 8.35932C0.0650191 8.40103 0.102988 8.43893 0.150866 8.47085C0.198744 8.50277 0.255593 8.52808 0.318159 8.54534C0.380725 8.5626 0.447781 8.57146 0.515491 8.57143ZM0.515491 1.71429H11.0559C11.1236 1.71432 11.1907 1.70546 11.2533 1.6882C11.3158 1.67094 11.3727 1.64563 11.4206 1.61371C11.4684 1.58179 11.5064 1.54389 11.5323 1.50218C11.5582 1.46047 11.5715 1.41577 11.5714 1.37063V0.343661C11.5715 0.298521 11.5582 0.253817 11.5323 0.212106C11.5064 0.170395 11.4684 0.132496 11.4206 0.100577C11.3727 0.0686586 11.3158 0.043346 11.2533 0.0260879C11.1907 0.00882984 11.1236 -3.51199e-05 11.0559 1.0456e-07H0.515491C0.447781 -3.51199e-05 0.380725 0.00882984 0.318159 0.0260879C0.255593 0.043346 0.198744 0.0686586 0.150866 0.100577C0.102988 0.132496 0.0650191 0.170395 0.039132 0.212106C0.0132448 0.253817 -5.26798e-05 0.298521 1.56839e-07 0.343661V1.37063C-5.26798e-05 1.41577 0.0132448 1.46047 0.039132 1.50218C0.0650191 1.54389 0.102988 1.58179 0.150866 1.61371C0.198744 1.64563 0.255593 1.67094 0.318159 1.6882C0.380725 1.70546 0.447781 1.71432 0.515491 1.71429ZM17.3571 3.42857H0.642857C0.472361 3.42857 0.308848 3.47372 0.188289 3.5541C0.0677295 3.63447 1.56839e-07 3.74348 1.56839e-07 3.85714V4.71429C1.56839e-07 4.82795 0.0677295 4.93696 0.188289 5.01733C0.308848 5.0977 0.472361 5.14286 0.642857 5.14286H17.3571C17.5276 5.14286 17.6912 5.0977 17.8117 5.01733C17.9323 4.93696 18 4.82795 18 4.71429V3.85714C18 3.74348 17.9323 3.63447 17.8117 3.5541C17.6912 3.47372 17.5276 3.42857 17.3571 3.42857ZM17.3571 10.2857H0.642857C0.472361 10.2857 0.308848 10.3309 0.188289 10.4112C0.0677295 10.4916 1.56839e-07 10.6006 1.56839e-07 10.7143V11.5714C1.56839e-07 11.6851 0.0677295 11.7941 0.188289 11.8745C0.308848 11.9548 0.472361 12 0.642857 12H17.3571C17.5276 12 17.6912 11.9548 17.8117 11.8745C17.9323 11.7941 18 11.6851 18 11.5714V10.7143C18 10.6006 17.9323 10.4916 17.8117 10.4112C17.6912 10.3309 17.5276 10.2857 17.3571 10.2857Z" fill="white"/>
</svg>
