<svg width="39" height="39" viewBox="0 0 39 39" fill="none" xmlns="http://www.w3.org/2000/svg">
<path d="M1.11528 27.8167H23.9197C24.0662 27.8168 24.2113 27.788 24.3467 27.732C24.482 27.676 24.605 27.5939 24.7086 27.4903C24.8122 27.3867 24.8943 27.2637 24.9504 27.1283C25.0064 26.993 25.0351 26.8479 25.035 26.7014V23.3686C25.0351 23.2221 25.0064 23.0771 24.9504 22.9417C24.8943 22.8063 24.8122 22.6833 24.7086 22.5797C24.605 22.4762 24.482 22.394 24.3467 22.338C24.2113 22.282 24.0662 22.2532 23.9197 22.2533H1.11528C0.968783 22.2532 0.823706 22.282 0.688343 22.338C0.55298 22.394 0.429988 22.4762 0.326402 22.5797C0.222816 22.6833 0.14067 22.8063 0.0846628 22.9417C0.0286555 23.0771 -0.000113974 23.2221 3.39325e-07 23.3686V26.7014C-0.000113974 26.8479 0.0286555 26.993 0.0846628 27.1283C0.14067 27.2637 0.222816 27.3867 0.326402 27.4903C0.429988 27.5939 0.55298 27.676 0.688343 27.732C0.823706 27.788 0.968783 27.8168 1.11528 27.8167ZM1.11528 5.56334H23.9197C24.0662 5.56345 24.2113 5.53468 24.3467 5.47867C24.482 5.42267 24.605 5.34052 24.7086 5.23694C24.8122 5.13335 24.8943 5.01036 24.9504 4.87499C25.0064 4.73963 25.0351 4.59455 25.035 4.44806V1.11528C25.0351 0.968783 25.0064 0.823706 24.9504 0.688343C24.8943 0.55298 24.8122 0.429988 24.7086 0.326402C24.605 0.222816 24.482 0.14067 24.3467 0.0846626C24.2113 0.0286553 24.0662 -0.000113974 23.9197 3.39327e-07H1.11528C0.968783 -0.000113974 0.823706 0.0286553 0.688343 0.0846626C0.55298 0.14067 0.429988 0.222816 0.326402 0.326402C0.222816 0.429988 0.14067 0.55298 0.0846628 0.688343C0.0286555 0.823706 -0.000113974 0.968783 3.39325e-07 1.11528V4.44806C-0.000113974 4.59455 0.0286555 4.73963 0.0846628 4.87499C0.14067 5.01036 0.222816 5.13335 0.326402 5.23694C0.429988 5.34052 0.55298 5.42267 0.688343 5.47867C0.823706 5.53468 0.968783 5.56345 1.11528 5.56334ZM37.5525 11.1267H1.39083C1.02196 11.1267 0.668198 11.2732 0.407366 11.534C0.146534 11.7949 3.39325e-07 12.1486 3.39325e-07 12.5175V15.2992C3.39325e-07 15.668 0.146534 16.0218 0.407366 16.2826C0.668198 16.5435 1.02196 16.69 1.39083 16.69H37.5525C37.9214 16.69 38.2752 16.5435 38.536 16.2826C38.7968 16.0218 38.9434 15.668 38.9434 15.2992V12.5175C38.9434 12.1486 38.7968 11.7949 38.536 11.534C38.2752 11.2732 37.9214 11.1267 37.5525 11.1267ZM37.5525 33.38H1.39083C1.02196 33.38 0.668198 33.5266 0.407366 33.7874C0.146534 34.0482 3.39325e-07 34.402 3.39325e-07 34.7709V37.5525C3.39325e-07 37.9214 0.146534 38.2752 0.407366 38.536C0.668198 38.7968 1.02196 38.9434 1.39083 38.9434H37.5525C37.9214 38.9434 38.2752 38.7968 38.536 38.536C38.7968 38.2752 38.9434 37.9214 38.9434 37.5525V34.7709C38.9434 34.402 38.7968 34.0482 38.536 33.7874C38.2752 33.5266 37.9214 33.38 37.5525 33.38Z" fill="black" fill-opacity="0.6"/>
</svg>
