<svg width="224" height="187" viewBox="0 0 224 187" fill="none" xmlns="http://www.w3.org/2000/svg">
<path d="M195.641 118.811C189.577 134.754 175.261 146.205 156.389 151.525C137.518 156.846 114.377 155.915 91.528 147.224C68.679 138.534 50.7684 123.852 40.2024 107.335C29.6362 90.8182 26.5479 72.7481 32.6116 56.8053C38.6034 41.0512 51.4891 32.3696 68.967 29.7015C86.6361 27.0041 108.755 30.551 131.982 39.3852C155.209 48.2191 174.353 60.3655 186.015 74.2345C197.564 87.9698 201.615 103.104 195.641 118.811Z" stroke="#F6BD2B" stroke-width="8.72309"/>
<path d="M121.222 34.2321C92.4335 19.0448 35.2408 -2.04367 35.8993 45.1273C36.5578 92.2982 58.8262 96.0818 69.8781 92.0773" stroke="#F6BD2B" stroke-width="8.72309"/>
</svg>
