<svg width="155" height="157" viewBox="0 0 155 157" fill="none" xmlns="http://www.w3.org/2000/svg">
<mask id="path-1-inside-1_155_310" fill="white">
<path d="M142.147 77.6953C143.549 90.2852 140.958 103.033 134.703 114.327C128.448 125.622 118.81 134.955 107.006 141.146C95.2033 147.338 81.7655 150.11 68.3925 149.112C55.0195 148.114 42.3118 143.391 31.8765 135.54C21.4411 127.689 13.7468 117.063 9.76649 105.005C5.78619 92.9471 5.69867 79.9992 9.51501 67.7986C13.3313 55.5981 20.8801 44.6929 31.2068 36.462C41.5334 28.2311 54.1741 23.0443 67.5303 21.5575L74.6167 85.2131L142.147 77.6953Z"/>
</mask>
<path d="M142.147 77.6953C143.549 90.2852 140.958 103.033 134.703 114.327C128.448 125.622 118.81 134.955 107.006 141.146C95.2033 147.338 81.7655 150.11 68.3925 149.112C55.0195 148.114 42.3118 143.391 31.8765 135.54C21.4411 127.689 13.7468 117.063 9.76649 105.005C5.78619 92.9471 5.69867 79.9992 9.51501 67.7986C13.3313 55.5981 20.8801 44.6929 31.2068 36.462C41.5334 28.2311 54.1741 23.0443 67.5303 21.5575L74.6167 85.2131L142.147 77.6953Z" stroke="white" stroke-width="5.56947" mask="url(#path-1-inside-1_155_310)"/>
<path d="M73.6485 8.22562C81.9899 7.14545 90.4753 7.81882 98.6202 10.2073C106.765 12.5957 114.41 16.6525 121.119 22.146C127.827 27.6394 133.468 34.462 137.719 42.2241C141.969 49.9863 144.747 58.536 145.893 67.3851L82.3745 75.6105L73.6485 8.22562Z" stroke="white" stroke-width="2.78473"/>
<line x1="94.1508" y1="9.85186" x2="75.7715" y2="21.5477" stroke="white" stroke-width="2.22779"/>
<line x1="106.474" y1="14.2583" x2="77.5128" y2="35.9792" stroke="white" stroke-width="2.22779"/>
<line x1="116.524" y1="19.2522" x2="78.6514" y2="49.3273" stroke="white" stroke-width="2.22779"/>
<line x1="125.396" y1="27.0786" x2="80.8403" y2="59.3815" stroke="white" stroke-width="2.22779"/>
<line x1="132.635" y1="35.4343" x2="82.5094" y2="71.6358" stroke="white" stroke-width="2.22779"/>
<line x1="139.846" y1="46.0362" x2="98.6322" y2="73.8836" stroke="white" stroke-width="2.22779"/>
<line x1="142.093" y1="54.9338" x2="119.259" y2="71.0853" stroke="white" stroke-width="2.22779"/>
</svg>
