<svg width="278" height="281" viewBox="0 0 278 281" fill="none" xmlns="http://www.w3.org/2000/svg">
<mask id="path-1-inside-1_136_421" fill="white">
<path d="M255.226 139.503C257.742 162.108 253.091 184.997 241.86 205.276C230.629 225.555 213.323 242.312 192.131 253.429C170.938 264.546 146.81 269.524 122.799 267.732C98.7877 265.94 75.971 257.46 57.2343 243.364C38.4976 229.267 24.6824 210.187 17.5358 188.537C10.3891 166.887 10.232 143.639 17.0842 121.733C23.9365 99.827 37.4904 80.2466 56.0319 65.4681C74.5734 50.6896 97.2698 41.3766 121.251 38.7069L133.975 153.001L255.226 139.503Z"/>
</mask>
<path d="M255.226 139.503C257.742 162.108 253.091 184.997 241.86 205.276C230.629 225.555 213.323 242.312 192.131 253.429C170.938 264.546 146.81 269.524 122.799 267.732C98.7877 265.94 75.971 257.46 57.2343 243.364C38.4976 229.267 24.6824 210.187 17.5358 188.537C10.3891 166.887 10.232 143.639 17.0842 121.733C23.9365 99.827 37.4904 80.2466 56.0319 65.4681C74.5734 50.6896 97.2698 41.3766 121.251 38.7069L133.975 153.001L255.226 139.503Z" stroke="black" stroke-width="10" mask="url(#path-1-inside-1_136_421)"/>
<path d="M132.236 14.7688C147.213 12.8294 162.448 14.0384 177.073 18.3269C191.697 22.6154 205.424 29.8993 217.469 39.7628C229.514 49.6264 239.642 61.8763 247.274 75.8133C254.907 89.7503 259.894 105.101 261.951 120.99L147.904 135.759L132.236 14.7688Z" stroke="black" stroke-width="5"/>
<line x1="169.048" y1="17.6878" x2="136.048" y2="38.6878" stroke="black" stroke-width="4"/>
<line x1="191.175" y1="25.6005" x2="139.175" y2="64.6005" stroke="black" stroke-width="4"/>
<line x1="209.218" y1="34.5672" x2="141.218" y2="88.5672" stroke="black" stroke-width="4"/>
<line x1="225.149" y1="48.6202" x2="145.149" y2="106.62" stroke="black" stroke-width="4"/>
<line x1="238.146" y1="63.6223" x2="148.146" y2="128.622" stroke="black" stroke-width="4"/>
<line x1="251.094" y1="82.6582" x2="177.094" y2="132.658" stroke="black" stroke-width="4"/>
<line x1="255.13" y1="98.6338" x2="214.13" y2="127.634" stroke="black" stroke-width="4"/>
</svg>
