<svg width="24" height="19" viewBox="0 0 24 19" fill="none" xmlns="http://www.w3.org/2000/svg">
<path d="M11.9464 5.48596L4.60463 11.5327V18.0589C4.60463 18.2279 4.67176 18.39 4.79124 18.5095C4.91073 18.6289 5.07278 18.6961 5.24176 18.6961L9.70406 18.6845C9.87249 18.6837 10.0337 18.6162 10.1525 18.4968C10.2713 18.3774 10.338 18.2158 10.338 18.0474V14.2361C10.338 14.0672 10.4051 13.9051 10.5246 13.7856C10.6441 13.6661 10.8062 13.599 10.9751 13.599H13.5237C13.6926 13.599 13.8547 13.6661 13.9742 13.7856C14.0937 13.9051 14.1608 14.0672 14.1608 14.2361V18.0446C14.1605 18.1284 14.1768 18.2115 14.2087 18.289C14.2406 18.3666 14.2875 18.437 14.3467 18.4964C14.4059 18.5558 14.4762 18.6029 14.5536 18.635C14.6311 18.6672 14.7141 18.6837 14.7979 18.6837L19.2586 18.6961C19.4276 18.6961 19.5897 18.6289 19.7092 18.5095C19.8286 18.39 19.8958 18.2279 19.8958 18.0589V11.5283L12.5556 5.48596C12.4693 5.4164 12.3618 5.37847 12.251 5.37847C12.1402 5.37847 12.0327 5.4164 11.9464 5.48596ZM23.5433 9.59585L20.2143 6.85181V1.33625C20.2143 1.20951 20.164 1.08797 20.0744 0.998357C19.9848 0.908743 19.8632 0.858398 19.7365 0.858398H17.5065C17.3798 0.858398 17.2582 0.908743 17.1686 0.998357C17.079 1.08797 17.0287 1.20951 17.0287 1.33625V4.22762L13.4635 1.29443C13.1214 1.01289 12.6921 0.858961 12.249 0.858961C11.8059 0.858961 11.3766 1.01289 11.0345 1.29443L0.954668 9.59585C0.906281 9.63584 0.866249 9.68498 0.836858 9.74045C0.807467 9.79592 0.789294 9.85663 0.783377 9.91913C0.77746 9.98163 0.783916 10.0447 0.802375 10.1047C0.820833 10.1647 0.850933 10.2205 0.890955 10.2688L1.90638 11.5033C1.9463 11.5518 1.99539 11.592 2.05085 11.6215C2.10631 11.651 2.16706 11.6693 2.2296 11.6754C2.29215 11.6814 2.35527 11.675 2.41535 11.6566C2.47544 11.6382 2.5313 11.6082 2.57975 11.5682L11.9464 3.85331C12.0327 3.78375 12.1402 3.74582 12.251 3.74582C12.3618 3.74582 12.4693 3.78375 12.5556 3.85331L21.9226 11.5682C21.971 11.6082 22.0268 11.6383 22.0868 11.6567C22.1468 11.6752 22.2098 11.6817 22.2723 11.6757C22.3348 11.6698 22.3955 11.6517 22.451 11.6223C22.5065 11.5929 22.5556 11.5528 22.5956 11.5045L23.611 10.27C23.651 10.2214 23.681 10.1653 23.6992 10.105C23.7175 10.0448 23.7236 9.9815 23.7173 9.91886C23.711 9.85621 23.6924 9.79542 23.6626 9.73999C23.6327 9.68456 23.5922 9.63557 23.5433 9.59585Z" fill="white"/>
</svg>
