<svg width="30" height="42" viewBox="0 0 30 42" fill="none" xmlns="http://www.w3.org/2000/svg">
<path d="M0.657909 17.0771L0.352669 14.268C0.22342 13.0786 1.00194 11.722 2.08898 11.2424L24.6692 1.13598C25.7613 0.647478 26.7488 1.21418 26.8716 2.39988L29.5445 26.9982C29.6738 28.1876 28.8953 29.5443 27.8082 30.0238L25.2289 31.1776C24.1251 31.6713 23.1283 31.0755 23.021 29.863L21.7344 14.8281L7.01424 40.479C6.33303 41.6661 5.08983 42.2221 4.22576 41.7263L2.14677 40.5332C1.2827 40.0374 1.13558 38.6834 1.81678 37.4964L16.537 11.8455L2.90681 18.3202C1.80066 18.8481 0.783409 18.2881 0.657909 17.0771Z" fill="#F6BD2B"/>
</svg>
