<svg width="63" height="63" viewBox="0 0 63 63" fill="none" xmlns="http://www.w3.org/2000/svg">
<path d="M31.4999 0.015625C14.1111 0.015625 0.0155029 14.1112 0.0155029 31.5C0.0155029 48.8888 14.1111 62.9844 31.4999 62.9844C48.8886 62.9844 62.9843 48.8888 62.9843 31.5C62.9843 14.1112 48.8886 0.015625 31.4999 0.015625ZM31.4999 54.8594C18.59 54.8594 8.1405 44.4124 8.1405 31.5C8.1405 18.5901 18.5875 8.14062 31.4999 8.14062C44.4097 8.14062 54.8593 18.5876 54.8593 31.5C54.8593 44.4099 44.4123 54.8594 31.4999 54.8594ZM31.4999 15.25C22.5256 15.25 15.2499 22.5257 15.2499 31.5C15.2499 40.4743 22.5256 47.75 31.4999 47.75C40.4742 47.75 47.7499 40.4743 47.7499 31.5C47.7499 22.5257 40.4742 15.25 31.4999 15.25ZM31.4999 39.625C27.0197 39.625 23.3749 35.9802 23.3749 31.5C23.3749 27.0198 27.0197 23.375 31.4999 23.375C35.9801 23.375 39.6249 27.0198 39.6249 31.5C39.6249 35.9802 35.9801 39.625 31.4999 39.625Z" fill="black"/>
</svg>
