<svg width="25" height="22" viewBox="0 0 25 22" fill="none" xmlns="http://www.w3.org/2000/svg">
<path d="M24.6582 19.0595L19.79 14.9349C19.5703 14.7487 19.2725 14.6453 18.96 14.6453H18.1641C19.5117 13.185 20.3125 11.3482 20.3125 9.35001C20.3125 4.59663 15.7666 0.745117 10.1562 0.745117C4.5459 0.745117 0 4.59663 0 9.35001C0 14.1034 4.5459 17.9549 10.1562 17.9549C12.5146 17.9549 14.6826 17.2764 16.4062 16.1346V16.809C16.4062 17.0737 16.5283 17.3261 16.748 17.5122L21.6162 21.6368C22.0752 22.0257 22.8174 22.0257 23.2715 21.6368L24.6533 20.466C25.1123 20.0772 25.1123 19.4483 24.6582 19.0595ZM10.1562 14.6453C6.7041 14.6453 3.90625 12.279 3.90625 9.35001C3.90625 6.42517 6.69922 4.05469 10.1562 4.05469C13.6084 4.05469 16.4062 6.42103 16.4062 9.35001C16.4062 12.2748 13.6133 14.6453 10.1562 14.6453Z" fill="white"/>
</svg>
